<svg xmlns="http://www.w3.org/2000/svg" viewBox="0 0 459.59 97.89"><path d="M361.7,48.94h0L410.64,0A48.94,48.94,0,0,0,361.7,48.94"/><path d="M361.7,48.94a48.94,48.94,0,0,0,48.94,49Z"/><rect x="410.64" y="65.26" width="48.94" height="32.63"/><polygon points="410.64 0 410.64 0 410.64 32.63 459.59 32.63 459.59 0 410.64 0"/><path d="M14.35,65.86a15.58,15.58,0,0,1-7.54-1.75,11.79,11.79,0,0,1-5-5.48A21.91,21.91,0,0,1,0,49.16a21.42,21.42,0,0,1,1.94-9.81A12.62,12.62,0,0,1,7.2,33.81,15.92,15.92,0,0,1,14.83,32a20.36,20.36,0,0,1,4.87.58,20.22,20.22,0,0,1,3.85,1.3l-2,5.15A29.13,29.13,0,0,0,18.28,38a12.46,12.46,0,0,0-3.39-.49,7.52,7.52,0,0,0-4.51,1.3,7.82,7.82,0,0,0-2.69,3.88,19.43,19.43,0,0,0-.91,6.45,18.5,18.5,0,0,0,.91,6.23,7.75,7.75,0,0,0,2.69,3.84,7.15,7.15,0,0,0,4.33,1.31,14.87,14.87,0,0,0,4.45-.61,18.19,18.19,0,0,0,3.66-1.57v5.57a13,13,0,0,1-3.69,1.51,20.72,20.72,0,0,1-4.78.48"/><path d="M42.25,32c3.84,0,6.73.9,8.69,2.7s2.94,4.61,2.94,8.44v22.1H49.22l-1.28-4.54H47.7A17,17,0,0,1,45,63.62a9,9,0,0,1-3.18,1.7,15.33,15.33,0,0,1-4.39.54,11,11,0,0,1-4.9-1.06,7.8,7.8,0,0,1-3.45-3.26A11,11,0,0,1,27.79,56a8.82,8.82,0,0,1,3.54-7.57c2.36-1.74,6-2.68,10.8-2.85l5.21-.18V43.59c0-2.42-.5-4.12-1.48-5.09a5.69,5.69,0,0,0-4.15-1.45,13.74,13.74,0,0,0-4.42.73,31.26,31.26,0,0,0-4.24,1.75l-2-4.66a25.54,25.54,0,0,1,5.12-2A22.32,22.32,0,0,1,42.25,32M43.4,49.7q-5,.24-6.9,1.85a5.53,5.53,0,0,0-1.93,4.51,4.57,4.57,0,0,0,1.36,3.69,5.29,5.29,0,0,0,3.54,1.15,7.9,7.9,0,0,0,5.6-2.12q2.26-2.12,2.27-6.36V49.58Z"/><path d="M89.71,32.63V65.26H84.57L83.66,61H83.3a8.91,8.91,0,0,1-2.48,2.79,10.68,10.68,0,0,1-3.33,1.6,14.09,14.09,0,0,1-3.82.51,13.22,13.22,0,0,1-6-1.24,8.06,8.06,0,0,1-3.75-3.87A15.54,15.54,0,0,1,62.66,54V32.63h6.59V53q0,3.81,1.46,5.69a5.39,5.39,0,0,0,4.54,1.88A7.66,7.66,0,0,0,80,59.27a7.21,7.21,0,0,0,2.45-3.91,23.17,23.17,0,0,0,.73-6.2V32.63Z"/><path d="M124.16,65.86a10.72,10.72,0,0,1-8.81-4.23Q112,57.38,112,49t3.39-12.71a10.81,10.81,0,0,1,8.9-4.3,11.75,11.75,0,0,1,4,.64,9.58,9.58,0,0,1,3,1.73,10.51,10.51,0,0,1,2.12,2.42h.36q-.12-.86-.27-2.46c-.1-1.06-.15-2-.15-2.87V19.25h6.54v46h-5.15L133.6,60.9h-.24a12.58,12.58,0,0,1-2.15,2.51,9.49,9.49,0,0,1-3,1.79,11.47,11.47,0,0,1-4.05.66m1.75-5.26q4.25,0,6-2.64c1.15-1.75,1.72-4.39,1.72-7.9v-1c0-3.84-.54-6.76-1.63-8.78s-3.13-3-6.12-3a5.79,5.79,0,0,0-5.32,3.18,17.55,17.55,0,0,0-1.82,8.69q0,5.51,1.82,8.47a5.91,5.91,0,0,0,5.38,3"/><path d="M161.45,32a13.37,13.37,0,0,1,7,1.79A11.76,11.76,0,0,1,173,38.93a17.94,17.94,0,0,1,1.61,7.87v3.51H154.12q.12,5,2.43,7.68A8.07,8.07,0,0,0,163,60.66a21.46,21.46,0,0,0,5.27-.58,27.17,27.17,0,0,0,4.78-1.72v5.33a22.91,22.91,0,0,1-4.69,1.63,26.6,26.6,0,0,1-5.78.54A16.16,16.16,0,0,1,154.7,64a13.08,13.08,0,0,1-5.36-5.6,19.71,19.71,0,0,1-1.94-9.17,22.26,22.26,0,0,1,1.76-9.33A12.91,12.91,0,0,1,161.45,32m.06,5a6.22,6.22,0,0,0-5,2.24,10.84,10.84,0,0,0-2.18,6.35h13.86a12.64,12.64,0,0,0-.73-4.48,6.37,6.37,0,0,0-2.21-3A6.1,6.1,0,0,0,161.51,37"/><path d="M202.73,56.06a9.31,9.31,0,0,1-1.48,5.38,9,9,0,0,1-4.24,3.3,18,18,0,0,1-6.81,1.12,27,27,0,0,1-5.63-.51,19.54,19.54,0,0,1-4.35-1.48V58.24a32.29,32.29,0,0,0,4.84,1.84,17.9,17.9,0,0,0,5.2.82,7.54,7.54,0,0,0,4.67-1.15,3.77,3.77,0,0,0,1.45-3.09,3.44,3.44,0,0,0-.58-2,6.4,6.4,0,0,0-2.15-1.82,35.11,35.11,0,0,0-4.54-2.15,41.12,41.12,0,0,1-4.84-2.51,9.27,9.27,0,0,1-3.06-3,8.45,8.45,0,0,1-1.06-4.45,7.46,7.46,0,0,1,3.27-6.51A14.82,14.82,0,0,1,192,32a23.79,23.79,0,0,1,5.33.58,22.92,22.92,0,0,1,4.84,1.72l-2,4.91a20.81,20.81,0,0,0-2.81-1.12c-.95-.3-1.89-.56-2.82-.76a13.14,13.14,0,0,0-2.78-.3,7,7,0,0,0-3.91.91,2.89,2.89,0,0,0-1.36,2.54,3.24,3.24,0,0,0,.67,2,6.83,6.83,0,0,0,2.24,1.72,45.86,45.86,0,0,0,4.42,2,34.24,34.24,0,0,1,4.84,2.36,8.63,8.63,0,0,1,3,3,8.82,8.82,0,0,1,1,4.48"/><path d="M221.32,60.66a12.72,12.72,0,0,0,2.48-.24,17.42,17.42,0,0,0,2.12-.55v4.84a11.51,11.51,0,0,1-2.69.82,17.87,17.87,0,0,1-3.48.33,11.85,11.85,0,0,1-4.67-.9,7.14,7.14,0,0,1-3.39-3.15,12.8,12.8,0,0,1-1.27-6.24v-18h-4.17v-2.9l4.54-2.42L213,25.3H217v7.33h8.66v4.9H217V55.45a5.53,5.53,0,0,0,1.21,3.94,4.12,4.12,0,0,0,3.09,1.27"/><rect x="231.97" y="32.63" width="6.54" height="32.63"/><path d="M263.69,32c3.56,0,6.29.95,8.21,2.85s2.87,4.94,2.87,9.14V65.26h-6.54V44.92q0-3.81-1.48-5.72a5.43,5.43,0,0,0-4.57-1.91c-3,0-5.05,1-6.2,3s-1.73,4.82-1.73,8.53V65.26h-6.54V32.63h5.15l.91,4.36h.36a8.82,8.82,0,0,1,2.45-2.79,10.82,10.82,0,0,1,3.3-1.63,13.29,13.29,0,0,1,3.81-.55"/><path d="M310.75,48.91a22.58,22.58,0,0,1-1,7,14.64,14.64,0,0,1-2.85,5.16,11.76,11.76,0,0,1-4.48,3.19,15.31,15.31,0,0,1-5.92,1.09,14.12,14.12,0,0,1-5.57-1.09,12.13,12.13,0,0,1-4.45-3.19,14.74,14.74,0,0,1-2.91-5.16,22,22,0,0,1-1-7,20.89,20.89,0,0,1,1.7-8.91,12.3,12.3,0,0,1,4.89-5.53,14.44,14.44,0,0,1,7.54-1.91A13.8,13.8,0,0,1,304,34.47a13.12,13.12,0,0,1,5,5.53,19.85,19.85,0,0,1,1.81,8.91m-21.63,0a21.24,21.24,0,0,0,.77,6.07,7.57,7.57,0,0,0,2.43,3.9,7.56,7.56,0,0,0,8.62,0A7.87,7.87,0,0,0,303.4,55a21.06,21.06,0,0,0,.79-6.12,20.16,20.16,0,0,0-.79-6A7.68,7.68,0,0,0,300.94,39a6.85,6.85,0,0,0-4.37-1.32,6.13,6.13,0,0,0-5.69,2.93c-1.17,2-1.76,4.71-1.76,8.26"/><path d="M339.42,56.06a9.31,9.31,0,0,1-1.48,5.38,9,9,0,0,1-4.24,3.3,18,18,0,0,1-6.81,1.12,27,27,0,0,1-5.63-.51,19.54,19.54,0,0,1-4.35-1.48V58.24a32.29,32.29,0,0,0,4.84,1.84,17.9,17.9,0,0,0,5.2.82,7.54,7.54,0,0,0,4.67-1.15,3.77,3.77,0,0,0,1.45-3.09,3.44,3.44,0,0,0-.58-2,6.4,6.4,0,0,0-2.15-1.82,35.11,35.11,0,0,0-4.54-2.15A41.12,41.12,0,0,1,321,48.22a9.27,9.27,0,0,1-3.06-3,8.45,8.45,0,0,1-1.06-4.45,7.46,7.46,0,0,1,3.27-6.51,14.82,14.82,0,0,1,8.6-2.27,23.79,23.79,0,0,1,5.33.58,22.92,22.92,0,0,1,4.84,1.72l-2,4.91a20.81,20.81,0,0,0-2.81-1.12c-.95-.3-1.89-.56-2.82-.76a13.14,13.14,0,0,0-2.78-.3,7,7,0,0,0-3.91.91,2.89,2.89,0,0,0-1.36,2.54,3.24,3.24,0,0,0,.67,2,6.83,6.83,0,0,0,2.24,1.72,45.86,45.86,0,0,0,4.42,2,34.24,34.24,0,0,1,4.84,2.36,8.63,8.63,0,0,1,3,3,8.82,8.82,0,0,1,1,4.48"/></svg>